<?xml version="1.0" encoding="utf-8" ?>
<svg baseProfile="full" height="297mm" version="1.1" width="210mm" xmlns="http://www.w3.org/2000/svg" xmlns:ev="http://www.w3.org/2001/xml-events" xmlns:xlink="http://www.w3.org/1999/xlink"><defs /><line stroke="rgb(0%,0%,0%)" x1="0.0mm" x2="105mm" y1="0" y2="148.5mm" /><line stroke="rgb(0%,0%,0%)" x1="0.0mm" x2="105mm" y1="297.0mm" y2="148.5mm" /><line stroke="rgb(0%,0%,0%)" x1="4.117647058823529mm" x2="105mm" y1="0" y2="148.5mm" /><line stroke="rgb(0%,0%,0%)" x1="5.823529411764706mm" x2="105mm" y1="297.0mm" y2="148.5mm" /><line stroke="rgb(0%,0%,0%)" x1="8.235294117647058mm" x2="105mm" y1="0" y2="148.5mm" /><line stroke="rgb(0%,0%,0%)" x1="11.647058823529411mm" x2="105mm" y1="297.0mm" y2="148.5mm" /><line stroke="rgb(0%,0%,0%)" x1="12.352941176470587mm" x2="105mm" y1="0" y2="148.5mm" /><line stroke="rgb(0%,0%,0%)" x1="17.470588235294116mm" x2="105mm" y1="297.0mm" y2="148.5mm" /><line stroke="rgb(0%,0%,0%)" x1="16.470588235294116mm" x2="105mm" y1="0" y2="148.5mm" /><line stroke="rgb(0%,0%,0%)" x1="23.294117647058822mm" x2="105mm" y1="297.0mm" y2="148.5mm" /><line stroke="rgb(0%,0%,0%)" x1="20.588235294117645mm" x2="105mm" y1="0" y2="148.5mm" /><line stroke="rgb(0%,0%,0%)" x1="29.11764705882353mm" x2="105mm" y1="297.0mm" y2="148.5mm" /><line stroke="rgb(0%,0%,0%)" x1="24.705882352941174mm" x2="105mm" y1="0" y2="148.5mm" /><line stroke="rgb(0%,0%,0%)" x1="34.94117647058823mm" x2="105mm" y1="297.0mm" y2="148.5mm" /><line stroke="rgb(0%,0%,0%)" x1="28.823529411764703mm" x2="105mm" y1="0" y2="148.5mm" /><line stroke="rgb(0%,0%,0%)" x1="40.76470588235294mm" x2="105mm" y1="297.0mm" y2="148.5mm" /><line stroke="rgb(0%,0%,0%)" x1="32.94117647058823mm" x2="105mm" y1="0" y2="148.5mm" /><line stroke="rgb(0%,0%,0%)" x1="46.588235294117645mm" x2="105mm" y1="297.0mm" y2="148.5mm" /><line stroke="rgb(0%,0%,0%)" x1="37.05882352941176mm" x2="105mm" y1="0" y2="148.5mm" /><line stroke="rgb(0%,0%,0%)" x1="52.41176470588235mm" x2="105mm" y1="297.0mm" y2="148.5mm" /><line stroke="rgb(0%,0%,0%)" x1="41.17647058823529mm" x2="105mm" y1="0" y2="148.5mm" /><line stroke="rgb(0%,0%,0%)" x1="58.23529411764706mm" x2="105mm" y1="297.0mm" y2="148.5mm" /><line stroke="rgb(0%,0%,0%)" x1="45.29411764705882mm" x2="105mm" y1="0" y2="148.5mm" /><line stroke="rgb(0%,0%,0%)" x1="64.05882352941177mm" x2="105mm" y1="297.0mm" y2="148.5mm" /><line stroke="rgb(0%,0%,0%)" x1="49.41176470588235mm" x2="105mm" y1="0" y2="148.5mm" /><line stroke="rgb(0%,0%,0%)" x1="69.88235294117646mm" x2="105mm" y1="297.0mm" y2="148.5mm" /><line stroke="rgb(0%,0%,0%)" x1="53.52941176470588mm" x2="105mm" y1="0" y2="148.5mm" /><line stroke="rgb(0%,0%,0%)" x1="75.70588235294117mm" x2="105mm" y1="297.0mm" y2="148.5mm" /><line stroke="rgb(0%,0%,0%)" x1="57.647058823529406mm" x2="105mm" y1="0" y2="148.5mm" /><line stroke="rgb(0%,0%,0%)" x1="81.52941176470588mm" x2="105mm" y1="297.0mm" y2="148.5mm" /><line stroke="rgb(0%,0%,0%)" x1="61.764705882352935mm" x2="105mm" y1="0" y2="148.5mm" /><line stroke="rgb(0%,0%,0%)" x1="87.35294117647058mm" x2="105mm" y1="297.0mm" y2="148.5mm" /><line stroke="rgb(0%,0%,0%)" x1="65.88235294117646mm" x2="105mm" y1="0" y2="148.5mm" /><line stroke="rgb(0%,0%,0%)" x1="93.17647058823529mm" x2="105mm" y1="297.0mm" y2="148.5mm" /><line stroke="rgb(0%,0%,0%)" x1="70.0mm" x2="105mm" y1="0" y2="148.5mm" /><line stroke="rgb(0%,0%,0%)" x1="99.0mm" x2="105mm" y1="297.0mm" y2="148.5mm" /><line stroke="rgb(0%,0%,0%)" x1="74.11764705882352mm" x2="105mm" y1="0" y2="148.5mm" /><line stroke="rgb(0%,0%,0%)" x1="104.8235294117647mm" x2="105mm" y1="297.0mm" y2="148.5mm" /><line stroke="rgb(0%,0%,0%)" x1="78.23529411764704mm" x2="105mm" y1="0" y2="148.5mm" /><line stroke="rgb(0%,0%,0%)" x1="110.6470588235294mm" x2="105mm" y1="297.0mm" y2="148.5mm" /><line stroke="rgb(0%,0%,0%)" x1="82.35294117647058mm" x2="105mm" y1="0" y2="148.5mm" /><line stroke="rgb(0%,0%,0%)" x1="116.47058823529412mm" x2="105mm" y1="297.0mm" y2="148.5mm" /><line stroke="rgb(0%,0%,0%)" x1="86.47058823529412mm" x2="105mm" y1="0" y2="148.5mm" /><line stroke="rgb(0%,0%,0%)" x1="122.29411764705881mm" x2="105mm" y1="297.0mm" y2="148.5mm" /><line stroke="rgb(0%,0%,0%)" x1="90.58823529411764mm" x2="105mm" y1="0" y2="148.5mm" /><line stroke="rgb(0%,0%,0%)" x1="128.11764705882354mm" x2="105mm" y1="297.0mm" y2="148.5mm" /><line stroke="rgb(0%,0%,0%)" x1="94.70588235294116mm" x2="105mm" y1="0" y2="148.5mm" /><line stroke="rgb(0%,0%,0%)" x1="133.94117647058823mm" x2="105mm" y1="297.0mm" y2="148.5mm" /><line stroke="rgb(0%,0%,0%)" x1="98.8235294117647mm" x2="105mm" y1="0" y2="148.5mm" /><line stroke="rgb(0%,0%,0%)" x1="139.76470588235293mm" x2="105mm" y1="297.0mm" y2="148.5mm" /><line stroke="rgb(0%,0%,0%)" x1="102.94117647058823mm" x2="105mm" y1="0" y2="148.5mm" /><line stroke="rgb(0%,0%,0%)" x1="145.58823529411765mm" x2="105mm" y1="297.0mm" y2="148.5mm" /><line stroke="rgb(0%,0%,0%)" x1="107.05882352941175mm" x2="105mm" y1="0" y2="148.5mm" /><line stroke="rgb(0%,0%,0%)" x1="151.41176470588235mm" x2="105mm" y1="297.0mm" y2="148.5mm" /><line stroke="rgb(0%,0%,0%)" x1="111.17647058823528mm" x2="105mm" y1="0" y2="148.5mm" /><line stroke="rgb(0%,0%,0%)" x1="157.23529411764704mm" x2="105mm" y1="297.0mm" y2="148.5mm" /><line stroke="rgb(0%,0%,0%)" x1="115.29411764705881mm" x2="105mm" y1="0" y2="148.5mm" /><line stroke="rgb(0%,0%,0%)" x1="163.05882352941177mm" x2="105mm" y1="297.0mm" y2="148.5mm" /><line stroke="rgb(0%,0%,0%)" x1="119.41176470588235mm" x2="105mm" y1="0" y2="148.5mm" /><line stroke="rgb(0%,0%,0%)" x1="168.88235294117646mm" x2="105mm" y1="297.0mm" y2="148.5mm" /><line stroke="rgb(0%,0%,0%)" x1="123.52941176470587mm" x2="105mm" y1="0" y2="148.5mm" /><line stroke="rgb(0%,0%,0%)" x1="174.70588235294116mm" x2="105mm" y1="297.0mm" y2="148.5mm" /><line stroke="rgb(0%,0%,0%)" x1="127.64705882352939mm" x2="105mm" y1="0" y2="148.5mm" /><line stroke="rgb(0%,0%,0%)" x1="180.52941176470588mm" x2="105mm" y1="297.0mm" y2="148.5mm" /><line stroke="rgb(0%,0%,0%)" x1="131.76470588235293mm" x2="105mm" y1="0" y2="148.5mm" /><line stroke="rgb(0%,0%,0%)" x1="186.35294117647058mm" x2="105mm" y1="297.0mm" y2="148.5mm" /><line stroke="rgb(0%,0%,0%)" x1="135.88235294117646mm" x2="105mm" y1="0" y2="148.5mm" /><line stroke="rgb(0%,0%,0%)" x1="192.17647058823528mm" x2="105mm" y1="297.0mm" y2="148.5mm" /><line stroke="rgb(0%,0%,0%)" x1="140.0mm" x2="105mm" y1="0" y2="148.5mm" /><line stroke="rgb(0%,0%,0%)" x1="198.0mm" x2="105mm" y1="297.0mm" y2="148.5mm" /><line stroke="rgb(0%,0%,0%)" x1="144.1176470588235mm" x2="105mm" y1="0" y2="148.5mm" /><line stroke="rgb(0%,0%,0%)" x1="203.8235294117647mm" x2="105mm" y1="297.0mm" y2="148.5mm" /><line stroke="rgb(0%,0%,0%)" x1="148.23529411764704mm" x2="105mm" y1="0" y2="148.5mm" /><line stroke="rgb(0%,0%,0%)" x1="209.6470588235294mm" x2="105mm" y1="297.0mm" y2="148.5mm" /><line stroke="rgb(0%,0%,0%)" x1="152.35294117647058mm" x2="105mm" y1="0" y2="148.5mm" /><line stroke="rgb(0%,0%,0%)" x1="215.47058823529412mm" x2="105mm" y1="297.0mm" y2="148.5mm" /><line stroke="rgb(0%,0%,0%)" x1="156.4705882352941mm" x2="105mm" y1="0" y2="148.5mm" /><line stroke="rgb(0%,0%,0%)" x1="221.2941176470588mm" x2="105mm" y1="297.0mm" y2="148.5mm" /><line stroke="rgb(0%,0%,0%)" x1="160.58823529411762mm" x2="105mm" y1="0" y2="148.5mm" /><line stroke="rgb(0%,0%,0%)" x1="227.1176470588235mm" x2="105mm" y1="297.0mm" y2="148.5mm" /><line stroke="rgb(0%,0%,0%)" x1="164.70588235294116mm" x2="105mm" y1="0" y2="148.5mm" /><line stroke="rgb(0%,0%,0%)" x1="232.94117647058823mm" x2="105mm" y1="297.0mm" y2="148.5mm" /><line stroke="rgb(0%,0%,0%)" x1="168.8235294117647mm" x2="105mm" y1="0" y2="148.5mm" /><line stroke="rgb(0%,0%,0%)" x1="238.76470588235293mm" x2="105mm" y1="297.0mm" y2="148.5mm" /><line stroke="rgb(0%,0%,0%)" x1="172.94117647058823mm" x2="105mm" y1="0" y2="148.5mm" /><line stroke="rgb(0%,0%,0%)" x1="244.58823529411762mm" x2="105mm" y1="297.0mm" y2="148.5mm" /><line stroke="rgb(0%,0%,0%)" x1="177.05882352941174mm" x2="105mm" y1="0" y2="148.5mm" /><line stroke="rgb(0%,0%,0%)" x1="250.41176470588235mm" x2="105mm" y1="297.0mm" y2="148.5mm" /><line stroke="rgb(0%,0%,0%)" x1="181.17647058823528mm" x2="105mm" y1="0" y2="148.5mm" /><line stroke="rgb(0%,0%,0%)" x1="256.2352941176471mm" x2="105mm" y1="297.0mm" y2="148.5mm" /><line stroke="rgb(0%,0%,0%)" x1="185.2941176470588mm" x2="105mm" y1="0" y2="148.5mm" /><line stroke="rgb(0%,0%,0%)" x1="262.05882352941177mm" x2="105mm" y1="297.0mm" y2="148.5mm" /><line stroke="rgb(0%,0%,0%)" x1="189.41176470588232mm" x2="105mm" y1="0" y2="148.5mm" /><line stroke="rgb(0%,0%,0%)" x1="267.88235294117646mm" x2="105mm" y1="297.0mm" y2="148.5mm" /><line stroke="rgb(0%,0%,0%)" x1="193.52941176470586mm" x2="105mm" y1="0" y2="148.5mm" /><line stroke="rgb(0%,0%,0%)" x1="273.70588235294116mm" x2="105mm" y1="297.0mm" y2="148.5mm" /><line stroke="rgb(0%,0%,0%)" x1="197.6470588235294mm" x2="105mm" y1="0" y2="148.5mm" /><line stroke="rgb(0%,0%,0%)" x1="279.52941176470586mm" x2="105mm" y1="297.0mm" y2="148.5mm" /><line stroke="rgb(0%,0%,0%)" x1="201.76470588235293mm" x2="105mm" y1="0" y2="148.5mm" /><line stroke="rgb(0%,0%,0%)" x1="285.35294117647055mm" x2="105mm" y1="297.0mm" y2="148.5mm" /><line stroke="rgb(0%,0%,0%)" x1="205.88235294117646mm" x2="105mm" y1="0" y2="148.5mm" /><line stroke="rgb(0%,0%,0%)" x1="291.1764705882353mm" x2="105mm" y1="297.0mm" y2="148.5mm" /></svg>