<?xml version="1.0" encoding="utf-8" ?>
<svg baseProfile="tiny" height="100%" version="1.2" width="100%" xmlns="http://www.w3.org/2000/svg" xmlns:ev="http://www.w3.org/2001/xml-events" xmlns:xlink="http://www.w3.org/1999/xlink"><defs /><line stroke="rgb(0%,0%,0%)" x1="150" x2="10150.0" y1="150" y2="150.0" /><line stroke="rgb(0%,0%,0%)" x1="150" x2="10130.2673" y1="150" y2="777.9052" /><line stroke="rgb(0%,0%,0%)" x1="150" x2="10071.147" y1="150" y2="1403.3323" /><line stroke="rgb(0%,0%,0%)" x1="150" x2="9972.8725" y1="150" y2="2023.8131" /><line stroke="rgb(0%,0%,0%)" x1="150" x2="9835.8316" y1="150" y2="2636.8989" /><line stroke="rgb(0%,0%,0%)" x1="150" x2="9660.5652" y1="150" y2="3240.1699" /><line stroke="rgb(0%,0%,0%)" x1="150" x2="9447.7649" y1="150" y2="3831.2455" /><line stroke="rgb(0%,0%,0%)" x1="150" x2="9198.2705" y1="150" y2="4407.7929" /><line stroke="rgb(0%,0%,0%)" x1="150" x2="8913.0668" y1="150" y2="4967.5367" /><line stroke="rgb(0%,0%,0%)" x1="150" x2="8593.2793" y1="150" y2="5508.2679" /><line stroke="rgb(0%,0%,0%)" x1="150" x2="8240.1699" y1="150" y2="6027.8525" /><line stroke="rgb(0%,0%,0%)" x1="150" x2="7855.1324" y1="150" y2="6524.2399" /><line stroke="rgb(0%,0%,0%)" x1="150" x2="7439.6863" y1="150" y2="6995.4711" /><line stroke="rgb(0%,0%,0%)" x1="150" x2="6995.4711" y1="150" y2="7439.6863" /><line stroke="rgb(0%,0%,0%)" x1="150" x2="6524.2399" y1="150" y2="7855.1324" /><line stroke="rgb(0%,0%,0%)" x1="150" x2="6027.8525" y1="150" y2="8240.1699" /><line stroke="rgb(0%,0%,0%)" x1="150" x2="5508.2679" y1="150" y2="8593.2793" /><line stroke="rgb(0%,0%,0%)" x1="150" x2="4967.5367" y1="150" y2="8913.0668" /><line stroke="rgb(0%,0%,0%)" x1="150" x2="4407.7929" y1="150" y2="9198.2705" /><line stroke="rgb(0%,0%,0%)" x1="150" x2="3831.2455" y1="150" y2="9447.7649" /><line stroke="rgb(0%,0%,0%)" x1="150" x2="3240.1699" y1="150" y2="9660.5652" /><line stroke="rgb(0%,0%,0%)" x1="150" x2="2636.8989" y1="150" y2="9835.8316" /><line stroke="rgb(0%,0%,0%)" x1="150" x2="2023.8131" y1="150" y2="9972.8725" /><line stroke="rgb(0%,0%,0%)" x1="150" x2="1403.3323" y1="150" y2="10071.147" /><line stroke="rgb(0%,0%,0%)" x1="150" x2="777.9052" y1="150" y2="10130.2673" /><line stroke="rgb(0%,0%,0%)" x1="150" x2="150.0" y1="150" y2="10150.0" /><line stroke="rgb(0%,0%,0%)" x1="150" x2="-477.9052" y1="150" y2="10130.2673" /><line stroke="rgb(0%,0%,0%)" x1="150" x2="-1103.3323" y1="150" y2="10071.147" /><line stroke="rgb(0%,0%,0%)" x1="150" x2="-1723.8131" y1="150" y2="9972.8725" /><line stroke="rgb(0%,0%,0%)" x1="150" x2="-2336.8989" y1="150" y2="9835.8316" /><line stroke="rgb(0%,0%,0%)" x1="150" x2="-2940.1699" y1="150" y2="9660.5652" /><line stroke="rgb(0%,0%,0%)" x1="150" x2="-3531.2455" y1="150" y2="9447.7649" /><line stroke="rgb(0%,0%,0%)" x1="150" x2="-4107.7929" y1="150" y2="9198.2705" /><line stroke="rgb(0%,0%,0%)" x1="150" x2="-4667.5367" y1="150" y2="8913.0668" /><line stroke="rgb(0%,0%,0%)" x1="150" x2="-5208.2679" y1="150" y2="8593.2793" /><line stroke="rgb(0%,0%,0%)" x1="150" x2="-5727.8525" y1="150" y2="8240.1699" /><line stroke="rgb(0%,0%,0%)" x1="150" x2="-6224.2399" y1="150" y2="7855.1324" /><line stroke="rgb(0%,0%,0%)" x1="150" x2="-6695.4711" y1="150" y2="7439.6863" /><line stroke="rgb(0%,0%,0%)" x1="150" x2="-7139.6863" y1="150" y2="6995.4711" /><line stroke="rgb(0%,0%,0%)" x1="150" x2="-7555.1324" y1="150" y2="6524.2399" /><line stroke="rgb(0%,0%,0%)" x1="150" x2="-7940.1699" y1="150" y2="6027.8525" /><line stroke="rgb(0%,0%,0%)" x1="150" x2="-8293.2793" y1="150" y2="5508.2679" /><line stroke="rgb(0%,0%,0%)" x1="150" x2="-8613.0668" y1="150" y2="4967.5367" /><line stroke="rgb(0%,0%,0%)" x1="150" x2="-8898.2705" y1="150" y2="4407.7929" /><line stroke="rgb(0%,0%,0%)" x1="150" x2="-9147.7649" y1="150" y2="3831.2455" /><line stroke="rgb(0%,0%,0%)" x1="150" x2="-9360.5652" y1="150" y2="3240.1699" /><line stroke="rgb(0%,0%,0%)" x1="150" x2="-9535.8316" y1="150" y2="2636.8989" /><line stroke="rgb(0%,0%,0%)" x1="150" x2="-9672.8725" y1="150" y2="2023.8131" /><line stroke="rgb(0%,0%,0%)" x1="150" x2="-9771.147" y1="150" y2="1403.3323" /><line stroke="rgb(0%,0%,0%)" x1="150" x2="-9830.2673" y1="150" y2="777.9052" /><line stroke="rgb(0%,0%,0%)" x1="150" x2="-9850.0" y1="150" y2="150.0" /><line stroke="rgb(0%,0%,0%)" x1="150" x2="-9830.2673" y1="150" y2="-477.9052" /><line stroke="rgb(0%,0%,0%)" x1="150" x2="-9771.147" y1="150" y2="-1103.3323" /><line stroke="rgb(0%,0%,0%)" x1="150" x2="-9672.8725" y1="150" y2="-1723.8131" /><line stroke="rgb(0%,0%,0%)" x1="150" x2="-9535.8316" y1="150" y2="-2336.8989" /><line stroke="rgb(0%,0%,0%)" x1="150" x2="-9360.5652" y1="150" y2="-2940.1699" /><line stroke="rgb(0%,0%,0%)" x1="150" x2="-9147.7649" y1="150" y2="-3531.2455" /><line stroke="rgb(0%,0%,0%)" x1="150" x2="-8898.2705" y1="150" y2="-4107.7929" /><line stroke="rgb(0%,0%,0%)" x1="150" x2="-8613.0668" y1="150" y2="-4667.5367" /><line stroke="rgb(0%,0%,0%)" x1="150" x2="-8293.2793" y1="150" y2="-5208.2679" /><line stroke="rgb(0%,0%,0%)" x1="150" x2="-7940.1699" y1="150" y2="-5727.8525" /><line stroke="rgb(0%,0%,0%)" x1="150" x2="-7555.1324" y1="150" y2="-6224.2399" /><line stroke="rgb(0%,0%,0%)" x1="150" x2="-7139.6863" y1="150" y2="-6695.4711" /><line stroke="rgb(0%,0%,0%)" x1="150" x2="-6695.4711" y1="150" y2="-7139.6863" /><line stroke="rgb(0%,0%,0%)" x1="150" x2="-6224.2399" y1="150" y2="-7555.1324" /><line stroke="rgb(0%,0%,0%)" x1="150" x2="-5727.8525" y1="150" y2="-7940.1699" /><line stroke="rgb(0%,0%,0%)" x1="150" x2="-5208.2679" y1="150" y2="-8293.2793" /><line stroke="rgb(0%,0%,0%)" x1="150" x2="-4667.5367" y1="150" y2="-8613.0668" /><line stroke="rgb(0%,0%,0%)" x1="150" x2="-4107.7929" y1="150" y2="-8898.2705" /><line stroke="rgb(0%,0%,0%)" x1="150" x2="-3531.2455" y1="150" y2="-9147.7649" /><line stroke="rgb(0%,0%,0%)" x1="150" x2="-2940.1699" y1="150" y2="-9360.5652" /><line stroke="rgb(0%,0%,0%)" x1="150" x2="-2336.8989" y1="150" y2="-9535.8316" /><line stroke="rgb(0%,0%,0%)" x1="150" x2="-1723.8131" y1="150" y2="-9672.8725" /><line stroke="rgb(0%,0%,0%)" x1="150" x2="-1103.3323" y1="150" y2="-9771.147" /><line stroke="rgb(0%,0%,0%)" x1="150" x2="-477.9052" y1="150" y2="-9830.2673" /><line stroke="rgb(0%,0%,0%)" x1="150" x2="150.0" y1="150" y2="-9850.0" /><line stroke="rgb(0%,0%,0%)" x1="150" x2="777.9052" y1="150" y2="-9830.2673" /><line stroke="rgb(0%,0%,0%)" x1="150" x2="1403.3323" y1="150" y2="-9771.147" /><line stroke="rgb(0%,0%,0%)" x1="150" x2="2023.8131" y1="150" y2="-9672.8725" /><line stroke="rgb(0%,0%,0%)" x1="150" x2="2636.8989" y1="150" y2="-9535.8316" /><line stroke="rgb(0%,0%,0%)" x1="150" x2="3240.1699" y1="150" y2="-9360.5652" /><line stroke="rgb(0%,0%,0%)" x1="150" x2="3831.2455" y1="150" y2="-9147.7649" /><line stroke="rgb(0%,0%,0%)" x1="150" x2="4407.7929" y1="150" y2="-8898.2705" /><line stroke="rgb(0%,0%,0%)" x1="150" x2="4967.5367" y1="150" y2="-8613.0668" /><line stroke="rgb(0%,0%,0%)" x1="150" x2="5508.2679" y1="150" y2="-8293.2793" /><line stroke="rgb(0%,0%,0%)" x1="150" x2="6027.8525" y1="150" y2="-7940.1699" /><line stroke="rgb(0%,0%,0%)" x1="150" x2="6524.2399" y1="150" y2="-7555.1324" /><line stroke="rgb(0%,0%,0%)" x1="150" x2="6995.4711" y1="150" y2="-7139.6863" /><line stroke="rgb(0%,0%,0%)" x1="150" x2="7439.6863" y1="150" y2="-6695.4711" /><line stroke="rgb(0%,0%,0%)" x1="150" x2="7855.1324" y1="150" y2="-6224.2399" /><line stroke="rgb(0%,0%,0%)" x1="150" x2="8240.1699" y1="150" y2="-5727.8525" /><line stroke="rgb(0%,0%,0%)" x1="150" x2="8593.2793" y1="150" y2="-5208.2679" /><line stroke="rgb(0%,0%,0%)" x1="150" x2="8913.0668" y1="150" y2="-4667.5367" /><line stroke="rgb(0%,0%,0%)" x1="150" x2="9198.2705" y1="150" y2="-4107.7929" /><line stroke="rgb(0%,0%,0%)" x1="150" x2="9447.7649" y1="150" y2="-3531.2455" /><line stroke="rgb(0%,0%,0%)" x1="150" x2="9660.5652" y1="150" y2="-2940.1699" /><line stroke="rgb(0%,0%,0%)" x1="150" x2="9835.8316" y1="150" y2="-2336.8989" /><line stroke="rgb(0%,0%,0%)" x1="150" x2="9972.8725" y1="150" y2="-1723.8131" /><line stroke="rgb(0%,0%,0%)" x1="150" x2="10071.147" y1="150" y2="-1103.3323" /><line stroke="rgb(0%,0%,0%)" x1="150" x2="10130.2673" y1="150" y2="-477.9052" /></svg>